<svg version="1.0" xmlns="http://www.w3.org/2000/svg" width="4533.333" height="4533.333" viewBox="0 0 3400 3400"><path d="M0 1700v1700h3400V0H0v1700zm1270.1-583c13.8 2.6 25.6 11.5 31.6 23.7 3.4 6.9 3.7 8.2 3.7 16.2 0 12.2-2.7 18.6-11.3 27.2-3.6 3.6-8.5 7.6-10.9 8.8-24 12.3-54.7.8-63.4-23.6-3-8.7-2.2-19.9 2-28.6 8.6-17.4 28.9-27.4 48.3-23.7zm493.2.8c1.5 1.7 1.7 14.8 1.9 153.3l.3 151.4 2.2 4.2c1.3 2.3 3.6 5.1 5.2 6.2 3.9 2.8 14.4 6.7 20.4 7.6l4.7.7v16.8h-139v-16.8l6.8-.6c15.3-1.6 23-5.9 25.1-14 .8-3.2 1.1-41.1 1.1-131.8-.1-119.7-.2-127.6-1.9-132.5-4.4-12.8-11.9-18.1-31.6-22.2l-8-1.6-.3-7.8c-.2-6 0-7.9 1.1-8.3.8-.3 25-1.8 53.8-3.3 28.8-1.6 53.3-2.9 54.5-3 1.1 0 2.8.7 3.7 1.7zm123.8-.8c8.4 1.6 17.3 6.3 23.3 12.3 19.2 19.2 15.2 48.2-8.5 62.4-22 13.2-52.4 4.4-63.5-18.2-2.6-5.4-2.9-7-2.9-16 0-9.3.2-10.5 3.3-16.7 8.6-17.5 28.9-27.5 48.3-23.8zm-708.1 70v42h-17.6l-3.9-8.6c-8.9-19.8-28.6-44-40.5-49.7-7.8-3.8-17.8-4.7-59.2-5.4l-35.8-.6V1287h19.9c29.6 0 39.2-2.5 49.8-12.8 5.6-5.4 12.7-20 15.6-32.2l2.2-9h17.5v132h-17.8l-.6-4.5c-1.8-11.6-11.4-33.3-17.6-39.5-2.2-2.2-6.2-5.1-8.9-6.5-9-4.5-15.7-5.5-38.9-5.5h-21.3l.3 55.7c.3 50.3.5 56.1 2 58.9 4.3 7.9 13 12 31.8 15 5.2.8 9.9 1.9 10.3 2.3.4.4.7 4.3.5 8.7l-.3 7.9-84.7.3-84.8.2v-9c0-4.9.4-9 .8-9s6.4-.7 13.2-1.5c14.9-1.8 21-3.7 25.6-7.7 6.7-5.9 6.4-.5 6.4-127.7 0-65.2-.4-116.3-1-118.5-2.3-10.3-11.1-15.4-33.5-19.8l-11.5-2.3V1145h282v42zm281 19.5v33.5h62v24h-61v66.7c.1 72.2.4 77.2 5.3 87 3.2 6.3 7.1 9.6 13.9 11.9 4.4 1.4 7.5 1.6 21.2 1 8.9-.4 17.8-.9 19.9-1.2l3.7-.6v19l-6.7 2.7c-11.4 4.6-25.9 9.3-34.6 11.1-11.8 2.6-41.2 2.6-52 .1-17.2-4.1-30.2-13.8-37.1-27.8-7.3-15.1-7-10.9-7.4-94.7l-.3-75.2H1347v-24h41v-67h72v33.5zm984.8 28.1c32.3 5.4 57.4 23 68.9 48.1 5.9 12.8 9.8 35 9.1 50.8l-.3 7-74.4.3-74.4.2.6 11.8c1.8 36.7 14.2 61.4 36.2 72.2 10.2 5.1 19.6 7 34.4 7 17.8 0 28.6-3.6 42.2-13.8 7.1-5.4 18.6-17.3 21.5-22.1 1-1.7 2.2-3.1 2.7-3.1 1.5 0 16.7 11.3 16.7 12.4 0 2.2-13.1 18.4-20.9 25.9-16.3 15.6-37 26.3-61.6 31.8-4.1 1-12.7 1.4-27.5 1.3-18.1 0-23.1-.4-31.7-2.2-25.8-5.6-45.8-15.7-61.1-31-16.2-16.2-25.8-36.4-29.7-62.2-10.6-69.6 34-128.2 103.5-135.9 10.8-1.2 34.6-.5 45.8 1.5zm-255 1.3c23.2 6.8 37.6 22.5 44.4 48.4 2.1 7.9 2.2 10.8 2.7 74.7.7 75 .2 70.6 8.5 75.5 2.5 1.4 8.6 3.6 13.8 4.9l9.3 2.3v15.8l-66.7.3-66.8.2v-16.7l8.6-1.1c9.9-1.3 14-3.3 16.9-8.2 1.9-3.4 2-5.2 2.3-63.8.3-65.2-.1-71.4-4.9-81.7-5.7-12.2-15.2-17.2-30.8-16.3-13.4.8-27 7.5-36.7 18-8.2 8.8-7.5 2.1-7.2 72.4l.3 62.9 2.4 4.9c2 4.1 3.3 5.2 8.5 7.7 3.4 1.6 8.7 3.4 11.9 4l5.7 1.2v16.7h-135v-16.6l9.1-1.3c14.6-1.9 20.6-5.5 22.8-13.4.9-3 1.1-23.9.9-74.7l-.3-70.5-2.3-4.2c-5.5-10.4-12.8-15.3-25.9-17.5l-7.3-1.2v-16.5l5.3-.5c2.8-.3 26.5-1.7 52.6-3.1 44.1-2.3 47.6-2.4 49.3-.8 1.6 1.4 1.8 3.4 1.8 17.5 0 8.7.3 15.8.6 15.8s4.4-3.5 9.2-7.8c20.7-18.5 30.4-23.9 50.2-28.3 11.9-2.6 36.2-2.1 46.8 1zm-887.5 1.9c1.5 1.6 1.7 10.5 1.9 92.7l.3 91 2.2 4.1c4 7.5 11.2 11.6 25.1 14.5l6.2 1.3v16.6h-140v-16.8l6.8-.6c14.4-1.5 21-4.7 24.3-12 1.7-3.9 1.9-8.1 1.9-74.1 0-42.7-.4-71.3-1-73.4-3.1-11-13.3-17.9-31.4-21.3l-6.6-1.3v-8.2c0-4.6.3-8.3.8-8.4 2.2-.2 100.4-5.7 103.8-5.8 2.8-.1 4.6.5 5.7 1.7zm616.9-.1c1.7 1.5 1.8 5.6 1.8 89.9 0 60.5.3 89.9 1.1 93.4 2.1 9.7 10.5 15.8 26.7 19.1l6.2 1.3v16.6h-140v-16.8l6.8-.7c14.1-1.4 21.1-4.8 24.3-11.8 1.8-4 1.9-7.6 1.9-74.3 0-50.2-.3-71.1-1.1-73.5-1.6-4.6-6-10.5-10.1-13.5-3.6-2.7-16.6-7.1-23.5-8.1l-4.3-.6v-8.3c0-4.6.3-8.4.8-8.5 1.7-.2 100.1-5.7 103.6-5.8 2.4-.1 4.7.5 5.8 1.6zM2642 1556v15H779v-30h1863v15zm-1392 94.8c12.5 2.6 30.4 8.4 41.2 13.4l8.7 4.1 7-6.2 6.9-6.1h19l.6 16.7c.3 9.3.9 35.1 1.2 57.5l.6 40.8h-19.8l-5.3-14.3c-16.6-44.7-35.8-70.2-61.2-80.9-9.6-4-23.3-6.2-34.5-5.4-19.3 1.3-31.4 6.6-44.5 19.6-12.5 12.4-20.7 27.3-26.5 48.8-10.5 38.6-10.9 96.8-.7 133.2 6.4 23.1 15 38.9 28 51.7 7 7 10 9.1 18.7 13.4 14.7 7.1 25.5 9.2 44.1 8.6 16.8-.6 26.1-2.7 39-9.1 19.4-9.5 37.7-27.6 52.5-51.6 1.9-3 3.5-5.7 3.6-5.8.5-.7 19.4 11.1 19.4 12.1 0 1.5-8.5 16-15.4 26.2-7.7 11.4-24.5 28.3-35.7 35.7-16.1 10.8-35.8 18.7-55.4 22.4-14.7 2.8-48.4 2.6-64.7-.4-34.8-6.4-62.1-20.3-85.3-43.6-13.4-13.4-19.9-22.6-28-39.1-9.8-20.2-14.7-38.6-16.5-63.2-3.6-47.4 10.9-92.8 40.4-126.5 25.1-28.7 61.1-47.3 103.3-53.3 14.1-2 46.6-1.3 59.3 1.3zm293 14.2c0 8.5-.1 9-2.2 9.4-1.3.2-7.8 1.1-14.5 2-19.8 2.6-26.8 6.3-29.3 15.6-.7 2.6-1 41.2-.8 120.2.3 96 .6 116.9 1.7 120 2.3 6.2 6.6 10.5 12.8 12.8 8.5 3.2 31.9 4.5 54.3 3.1 32.9-2.1 39.2-4.9 52.6-23.1 6.7-9.1 16.1-25.2 24.2-41.6l7.6-15.4h7.7c4.3 0 8 .3 8.2.7.3.7-5.8 100.2-6.2 101 0 .2-64.9.3-144.1.3h-144v-19h3.6c6.9 0 24.9-3.1 29.4-5.1 5.8-2.6 7.9-4.5 10.1-9.4 1.8-3.8 1.9-9.7 1.9-122.4 0-115.9 0-118.6-2-122.5-3.5-7.3-13.4-12-32.5-15.4l-10-1.8-.3-9.2-.3-9.2H1543v9zm303.5 0v8.5l-8.4 1.2c-19.6 2.7-28.1 6.2-31.5 12.8-2.1 4-2.1 4.6-2.1 100.5v96.5l2.7 9.6c5.3 19.3 13.8 32 27.4 40.9 12.8 8.3 27.5 12 48.4 12 41.3 0 67.3-19.3 77.8-57.5l2.7-10v-80c0-87.2 0-87.2-5.8-99.9-5.4-11.7-13.1-16.6-35.1-22.1l-13.1-3.3-.3-9.1-.3-9.1H2045v9c0 8.5-.1 9-2.2 9.4-1.3.3-7.1 1.3-13 2.4-22.5 4.2-31 11.4-35.4 30.3-1.5 6.6-1.8 16.7-2.4 89.9-.6 68.4-1 83.8-2.3 90.2-9.2 45.9-41.8 77.2-91.6 87.9-12.4 2.6-42.1 3.7-58.2 2-37.5-3.9-64.5-15-85.2-35-16.6-16-26.5-36.4-29.7-61.1-.5-4.3-1-44.2-1-94.3 0-59.2-.3-88.2-1.1-91.1-2.5-9.9-12.1-16.2-30.2-19.9l-10.7-2.2V1656l82.3.2 82.2.3v8.5zm428.5-6.6c18.4 2.6 33.8 6.8 44.9 12.2 7.9 3.9 11 6.1 17.7 12.8 12.9 12.9 18.3 27.7 17.1 47.1-1.8 29.5-21.3 49.4-61.7 62.8-7.4 2.5-15.2 4.8-17.2 5.2-2.8.5-3.8 1.2-3.8 2.6 0 1.4.7 1.9 2.6 1.9 5.1 0 23.1 4.2 34.9 8.1 43 14.3 64.7 41.9 62.2 79.2-2.3 34.7-20 55.8-57.1 68.2-30.5 10.3-52.7 11.7-169.1 11.3l-82-.3v-17.9l14.3-1.8c20.3-2.5 26.7-5.9 30-15.7 1.7-4.9 1.7-234.7 0-240.3-2.4-8-11.3-13-30-16.8-5.7-1.2-11.3-2.3-12.5-2.6-2.2-.4-2.3-.9-2.3-8.8 0-4.5.3-8.6.7-9 .4-.4 45.3-.6 99.8-.4 88.6.4 100.3.6 111.5 2.2zM886.2 2017c6.9 2 13 7 16.3 13.4 2.8 5.5 3 6.7 2.9 16-.1 8.5-.6 11.6-3.4 20.1-6.1 18.6-18.1 39.7-33.8 59.5-9.2 11.6-28.7 31.1-40.2 40.4-30.5 24.4-70.2 44.6-121.1 61.7-8.5 2.9-15.9 5.7-16.6 6.3-2.2 2-19.2 34.9-25.9 50.1-18.5 41.8-24.6 75.8-16.6 91.4 4.2 8.1 15.2 10.4 25.2 5.4 10.1-5 27.9-24 39.2-41.8 18.3-28.8 26.9-50.5 27.2-68.5.2-18.1-6.3-25-23.6-25-5.5 0-7.2-.4-8.8-2-4-4 .9-8 9.9-8 11.2 0 23.1 5.2 31 13.5 8.8 9.3 12.2 19 12.2 35.1.2 38.5-30 87.8-63.3 103.4-17.4 8.1-41.5 10.9-55 6.2-11.7-4-19.2-12.9-21.8-25.7-1.7-8.4-.6-16.8 4.1-30.9 2.2-6.7 4.3-12.8 4.5-13.6.3-.8-2.6 4.4-6.4 11.7-10.7 20.1-19.3 32.4-31.2 44.5-8.5 8.6-11.9 11.3-17.5 14-6.1 2.9-8 3.3-15 3.2-16.1 0-24.9-7-28.1-22.5-3.4-16.5 3.1-36.6 22.2-68.6 8.7-14.5 10.4-18.1 10.4-22.1 0-10.8-15.1-4.2-36.1 15.6-23.9 22.4-54.7 67.5-62.4 91.1-1.7 5.2-1.8 5.3-4.9 4.7-1.9-.3-4.5-2.2-6.8-4.7-5-5.5-6.5-12.1-4.9-21.5 2.1-12.3 5.1-20.5 16.3-44.9 12.7-27.5 16.8-38.1 16.8-43 0-2.9-.4-3.5-2-3.5-5.3 0-17.1 9-34.1 25.9-20.2 20.3-38.3 46.1-55.9 79.9-2.8 5.4-5.2 8.8-7 9.7-1.5.8-7.4 1.7-13.1 2.1-5.7.4-11.4 1.1-12.6 1.5-1.3.5-2.3.7-2.3.5 0-.1 4.4-9.5 9.9-20.7 5.4-11.2 14-29.4 19.1-40.4 10.6-23 27.6-56.8 35.1-70 10.8-18.9 16.5-23.9 27.3-23.9 3.4 0 9.6.4 13.8.8l7.8.9-6.4 6.8c-10.1 10.6-24 32.7-40 63.4-4.3 8.2-5.1 10.2-3 8 1.4-1.7 6.8-7.7 11.8-13.3 9.2-10.5 35.7-34.9 52-48 10.3-8.2 22.6-15 28.8-15.8 8.1-1 15.3 5.1 15.3 13 0 4.7-7.5 20.9-19.5 42.1-3.7 6.6-8.2 14.9-9.9 18.5l-3.2 6.5 3.8-4.5c26-30.8 49.4-49.9 79.3-65 16.3-8.2 33.5-13.2 35.4-10.2.3.6-3.3 8.2-8 16.9-18.2 33.3-35.9 71-42.6 90.8-3.5 10.3-4.8 22.7-2.8 27.4 2.3 5.7 9.3 6.3 17.6 1.6 5.6-3.3 16.6-15.2 22.9-24.9 8.9-13.6 22.8-39.2 43.1-79.1l19.3-38-6.9-.2c-10.8-.2-16.9-2.5-23.6-8.6-3.1-2.8-6.5-7-7.5-9.2-2.3-4.9-2.4-11.3-.3-14.3 3-4.4 10.4-1.7 10.4 3.7 0 4.1 4.1 11.4 7.6 13.3 3.8 2.2 17.4 4.2 22.9 3.4 4-.6 4.1-.8 10.9-13.4 38.1-69.9 65.3-108.5 106-150 29.3-29.9 51.4-43.9 76.9-48.8 7.8-1.5 22.8-1.2 28.9.6zM526 2194.5c4.1.8 13.8 3.3 21.5 5.5 17.9 5 26 6.4 34.9 5.8 8.5-.6 15.2-3.7 21.1-9.7 3.5-3.7 4.4-4.1 8.6-4.1 2.6 0 5.1.5 5.4 1 1 1.7-9.8 14.3-16.7 19.5-18.5 14-34.2 15.7-64.3 7-24.4-7.1-32.1-8.7-42-8.9-10.6-.1-15.7 1.8-23.3 9-3.7 3.5-5.3 4.4-8.2 4.4-4.8 0-8-1-8-2.4 0-1.3 12.7-13.9 18.5-18.3 5.9-4.5 14-8.3 20.9-9.9 7.3-1.6 20.7-1.2 31.6 1.1zm2196.6 41c4.9 2 10.2 7 12 11.2 3.3 7.8.9 20.9-6.1 32.3-4.4 7.2-15.8 19.6-23.7 25.6-11.4 8.8-32.9 17.6-50 20.5-6.3 1-7.8 1.6-8.3 3.3-6.3 22.1-6.6 38.2-.8 48.9 4.5 8.1 6.6 9.2 18.7 9.2 9.9 0 10.5-.1 18.2-3.9 13.8-6.8 32.2-27.5 42.3-47.3 1.7-3.4 3.1-7.1 3.1-8.2 0-2.5 18-38.7 25.9-52.1 8.9-14.9 13.4-20.4 21-25.3 8.7-5.8 11.9-6.9 18.7-6.8 10.5.1 17.8 5.8 21.6 17 1.4 4.2 1.7 19.4.5 29.6l-.8 7 6-10.1c12.9-21.9 33.7-46 43.2-50.4 5-2.2 12.2-2.6 15.8-.7 8.7 4.4 8.5 15.8-.3 23.5-6.9 6-15.5 6.4-21.2 1.1l-3-3-5.5 5.8c-15.1 16-31.8 43.4-40.5 66.3-2.6 7-2.8 8.5-2.8 23-.1 15.5-.1 15.6 3.1 22 3.9 8 6.9 10 15 10 8 0 14.4-3.3 23.2-12 11.1-11.1 26.4-35.9 37.5-61.1 10.5-23.7 29.4-48.3 45.9-59.7 31.9-21.9 66.3-24.1 85.5-5.4 4.3 4.2 5.2 5.7 5.2 8.5 0 3.8-2.3 6.5-6 6.9-2 .2-2.8-.5-4.3-3.7-4.2-8.9-9.1-11.9-19.7-11.9-8.6 0-14.3 2.1-25.2 9.5-8.2 5.6-23.1 20.1-32.3 31.4-36.2 44.6-51 96-27.7 96 16.1 0 35.7-21.3 61.2-66.5 17.3-30.6 20.2-35.2 24.8-40 5.6-5.8 10.4-6.9 21.2-5.1 3.8.6 8.5 1.1 10.4 1.1h3.4l-7.5 11.2c-9.5 14.3-25.8 47-30.6 61.4-4.8 14.5-6.7 28.8-4.7 34.7 1.4 3.8 1.8 4.2 5.3 4.5 11.7 1 29.6-21.1 52.6-64.9 7.5-14.4 8.9-16.3 11.8-15.7 3.8.7 2.6 5.2-6.1 22.4-18.3 36.2-36.7 60.3-51.7 67.9-9.9 5.1-20.9 4-28.6-2.8-8.4-7.4-11.5-23.7-7.8-41.2.8-3.8 1.5-7.2 1.5-7.4 0-.3-3.3 4.3-7.2 10.1-19.8 28.8-38.1 44.1-53.1 44.2-15.8.2-25.8-12.6-27.4-35l-.6-8.1-5 7.6c-7.2 10.9-22.5 25.8-30.7 29.8-29.3 14.3-53.3-1.1-55.9-35.7l-.6-9.5-2.7 5c-1.4 2.7-5.7 9.7-9.5 15.5-20.2 30.5-36.2 43.7-54.2 44.8-6.3.4-8.6.1-12.4-1.6-5.8-2.6-8.4-6.3-6.8-9.8 1.8-4 4.9-4.5 9.9-1.7 5.5 3.3 13.1 2.9 21.7-1 17-7.9 44.2-48.5 57.9-86.5 5-14.1 8.3-41.7 5.7-48.5-4.5-11.8-17-5.1-29.3 15.8-7.4 12.6-14 25.5-14.3 28.4-.5 3.5-15.5 35.8-21.3 45.7-16.6 28.5-37 43.8-61.3 46-18.6 1.6-37.7-7.5-44.8-21.4-2.9-5.6-5.1-15.4-5.1-22.6v-5.9l-6.9 10.4c-22.3 33.5-41.1 44.8-62.3 37.3-12.3-4.3-19.1-20.5-15.9-37.6 2.9-15.5 7.9-27.1 21.3-49.5 11.7-19.7 13.7-25 10.6-28.1-7.4-7.4-39.4 19-65.1 53.6-8.4 11.3-18 27.1-27.8 45.5-5.1 9.7-8.1 14.3-9.9 15.2-1.4.7-7.8 1.8-14.1 2.3-6.3.5-12.2 1.2-13.2 1.7-1.4.6-.8-1.3 2.6-8.2l4.6-9-7.9 5.2c-9.2 6-17.3 8.9-29.5 10.6-21.4 2.8-41.3-3.5-49.8-15.8-6.1-8.9-7.1-12.8-7.2-26.8 0-7.2.4-15 .8-17.5.7-4 0-3.1-6.5 8.5-9.6 17-16.2 26.4-24.5 34.9-13.6 13.8-29.6 23.7-54.7 33.6l-12.1 4.8-8.3 13.9c-21 34.8-33.9 52-52.3 69.8-19.7 19.1-39.8 30.8-60.1 35-30.2 6.4-55.4-1-61.7-18.1-4-10.5-2.3-22.5 5.2-36.8 7.5-14.5 21.7-26.5 44.1-37.2 15.5-7.4 29.8-11.9 69.6-21.9 19-4.8 35.5-9.1 36.7-9.6 4.7-1.8 19.2-35.6 32.2-74.8 3.9-11.8 7-21.6 6.8-21.7-.2-.2-3.9 5.9-8.3 13.6-11.6 20.5-19.3 31-32.9 44.6-9.3 9.3-13.5 12.8-18.5 15.2-15.8 7.8-33.1 5.4-42.1-5.8-3.8-4.7-6.3-14.8-5.6-22 .9-8.7 4.4-18.6 10.4-30 3.1-5.7 5.1-10.6 4.6-10.7-3.2-1.1-4.5-3-3.7-5.4 2.3-6.3 36-70.7 38.2-73.2 3.9-4.1 8-4.8 26.2-4.5l16.5.3-5 3.5c-2.7 1.9-6 4.5-7.3 5.9-7.6 8.3-45.5 83.8-51.5 102.6-1.4 4.4-2.6 10.3-2.7 13-.4 11.2-.1 13.3 2.7 16.5 2.5 3 3 3.2 7.8 2.8 7-.6 14.7-5.9 23.7-16.2 18.1-20.8 39.3-55 63.1-101.6 5.5-10.7 10.9-20.6 12.1-21.9 3.9-4.3 7.4-5.1 24-5.1h15.4l-6.5 6.2c-14.2 13.7-17.9 22.3-51.4 119.3-6.6 19.2-12.3 35.8-12.6 36.8-1.3 4.3 26.9-8.7 39.8-18.5 15.9-12 26.6-26.1 42.4-55.8 10-18.8 12.8-23 15.5-23 1.3 0 3.3-2.8 7-9.6 10.1-19.1 20.8-32.9 33-42.7 28.4-22.9 66.6-21.9 73.6 1.9 3.1 10.7 0 21.9-8.7 31.8-6.8 7.7-15.8 10.8-20 7-1.7-1.5-1.5-1.9 2.7-7.4 8.9-11.7 12.9-23.9 10.5-32-4-13.3-23.3-7.2-43.2 13.8-25.4 26.7-42.5 68.4-38.9 94.6 1.3 8.8 6.2 19 11 22.8 7.3 5.7 23.3 5.7 35.5-.1 12.6-5.9 25.9-18.9 37-36.1 2.4-3.6 8.2-14.8 13-25 9.3-19.9 27.7-55.2 33.2-63.8 8.4-13.2 16.1-18.1 26.7-16.8 2.8.3 8 .9 11.6 1.2l6.6.6-6.1 6.2c-9.7 9.8-23.9 32.1-39.1 61.4l-6.6 12.7 5.8-6.5c13.2-14.9 33.3-33.9 44.2-41.8 21.9-15.8 48.5-29.2 60.8-30.8 8.7-1 9-.2 3.2 10.1-10.2 18.1-37.5 73.3-42.1 85-5.7 14.7-7.6 21.7-8.4 31.7-.6 7.6-.6 7.7 2.6 10.9 2.9 2.8 3.6 3.1 7.2 2.5 5.6-.9 9.3-3 15.2-8.5 12.5-11.7 25.3-31.3 41.8-64.2 6.1-12.3 13.7-26.2 16.8-30.9 6.6-9.9 21.7-26 31-33 18.5-13.9 38.4-19.1 51.7-13.5zM876.8 2239c12.8 5.6 20.5 23.4 18.7 43-2.8 28.8-18 60.1-40.9 83.8l-7 7.2 2.1 2.8c5.8 7.9 20.7 10.3 31 5 2.8-1.5 8.1-5.7 11.7-9.4 6.2-6.3 6.6-6.9 6.6-11.3 0-10.4 4.8-18.3 12.4-20.2l4.2-1 8.7-17.5c4.8-9.6 9.5-17.8 10.4-18.1 2.1-.8 4.7.9 5.1 3.5.3 2.1-8.4 23-13.9 33.1-1.8 3.4-2.9 7-2.9 9.3 0 2.2-1 6.2-2.1 8.9-4 9.1-1.3 17.8 7.5 24.3 2.3 1.8 4.2 2.1 11.9 2.1 8.2 0 9.7-.3 13.9-2.7 10.5-6.2 22.4-19.5 36-40.2l7.8-11.9-4.9-1.7c-6.6-2.2-11.5-6.1-14.8-11.7-8.8-15.1.6-46.4 19.7-65.3 18.7-18.4 49-20.3 57.6-3.7l1.5 2.8 3.9-3.5c4.7-4.3 9.3-5.3 17.5-3.7 3.4.6 8.4 1.1 11 1.1h4.8l-4.5 4.2c-10.1 9.6-26.2 34.7-42.9 67.3-15.2 29.6-19.4 42.2-18.7 56.6.3 7.4.6 8.3 3.1 10.5 3.6 3.1 9.5 3.2 15.3.3 5.8-2.8 18-16 26-28 3.6-5.5 11.2-18.8 16.9-29.7 5.7-10.8 10.9-20.3 11.5-21 .7-.7 2.2-1.2 3.3-1 4.3.6 3.3 5.3-4.7 21.3-14.1 28.5-25.5 45.4-39.6 58.8-14.7 14.1-28.9 18.1-40.5 11.2-8.6-5-12.8-12.2-14.5-24.8-1.5-10.6 0-19 5.5-30.5 3.8-7.8 4.2-9.2 2.6-9.2-1.2 0-4.3 4.3-10.1 14.2-11.2 19.3-15.9 25.8-26 35.8-9.8 9.7-16.9 14.2-25.5 16.5-7.3 1.9-12.1 1.9-20.6.1-11.9-2.6-19.9-8-25.1-17.3l-3-5.3-6.1 5.5c-9.2 8.2-17.3 11.9-27.1 12.4-10.9.5-17.4-1.2-24.9-6.3l-6.3-4.3-8.5 5.2c-11.6 7-18.2 9-29.4 9-11.7 0-16.7-1.9-23.2-8.8-7.1-7.5-9.5-14.3-10.1-28.4-.5-12.3 1-22.1 5.4-35.3 13-39.3 49-78.3 79.3-86 6.3-1.6 19-.6 24.9 2zm1120.8-.8c3.9 2.1 9.3 7.7 10 10.3.5 1.9.8 1.8 4.4-1.6 4.7-4.5 9.8-5.6 18.5-4 3.2.6 7.9 1.1 10.3 1.1h4.4l-6.3 6.8c-11.5 12.2-25.8 35-42.9 68.7-11.8 23.3-16.1 35.5-16.8 48.1-.7 13 1.9 17.4 10.4 17.4 13.3 0 31.4-21.2 51.5-60.5 5.1-9.9 9.9-18.8 10.7-19.8 3.3-3.8 7.7-.8 6.2 4.3-.4 1.4-4.6 10.3-9.3 19.6-25.7 50.7-52.2 75.1-73.8 67.9-12.3-4.1-18.9-15.9-18.9-33.6 0-9.8 1.8-16.6 7.1-27 2.6-5.2 2.7-5.9 1.1-5.9-1.2 0-4.1 4.1-9.4 13.3-10.6 18.4-18.8 29.6-27.9 38-9.1 8.6-16.3 13.1-24.4 15.2-7.3 1.9-12.1 1.9-20.8 0-12.1-2.5-20.2-8.5-25.7-18.8l-2.2-4.2-7.4 7.1c-8.6 8.3-16.7 13-24.8 14.2-10.3 1.6-18-.9-24-8-7.5-8.7-9.4-25-5-42.8.4-1.4-1 .1-3.2 3.5-15 23.8-32.4 41.3-45.6 46.1-6.3 2.3-17.6 2-23.6-.6-5.9-2.5-11.5-8-13.8-13.5-.9-2.2-2-7.5-2.3-11.8l-.6-7.8-6.5 8.7c-7.1 9.5-18.1 20.2-24.5 23.9-5.6 3.3-15.9 5.8-20.8 5.1-8.4-1.4-16.9-8.2-20.6-16.6-1.1-2.5-2.7-8.2-3.6-12.8-2.2-10.9-1.2-16.8 5.5-31.4 2.7-6.1 5-11.2 5-11.4 0-.1-1.4.1-3 .6-4.6 1.3-13-.4-22.2-4.6-5.4-2.4-10.1-3.8-14.2-4.1-10.4-.9-10.3-1-32.3 49.2-7 16.1-11.4 24.9-13.3 26.6-2.5 2.4-3.8 2.8-12.7 3.3-5.4.3-11.5 1-13.5 1.5-2.1.4-3.8.7-3.8.4 0-.2 2.3-4.9 5.1-10.4l5-10.1-6.8 5.7c-10.9 9.3-22 13.2-31.8 11.4-12.8-2.4-19.5-11.6-21.1-29-.6-5.8.5-16.5 2.3-22.4.3-1.1-3.1 3.5-7.6 10.3-13.2 19.7-28.8 34.8-41.1 39.6-6.4 2.6-17.4 2.3-24-.5-6.9-2.9-12.5-9.3-14.6-16.5-3.4-11.9-.3-26.3 9.8-45.2 3.6-6.7 4.6-9.2 3.5-9.2-1 0-4.3 5.3-8.7 13.7-10.3 20-18.8 32.3-29.9 43.4-10.4 10.4-16.9 14.4-26 15.8-14.9 2.4-26.1-5.4-29.7-20.8-4.6-19.5 1.4-40 30.4-103.2 12-26.3 11.6-24.3 5.2-23.6-2.9.4-6.5 1.5-8.1 2.5-7.4 4.7-17.2 22.1-29.7 52.7-20.8 50.9-40 80.6-57.5 88.8-14.8 7.1-36.1 4.3-46.4-6-5.8-5.8-11.6-17.8-12.1-25.3-.8-10.4 6.3-20.1 14.8-20.4 8.4-.2 11.3 7.4 7 18.6-2.5 6.7-2.5 9.9 0 14.8 3.9 7.7 10.8 10.5 21.8 9 9.5-1.3 14.3-3.9 22.4-12 12.7-12.7 26.4-36.9 43.8-77.5 13.3-31.1 16.6-37.2 23.5-44.2 8.9-8.9 10.7-9.3 42.4-9.3h25.6l-6.7 6.4c-8.5 8.1-11.6 13-24.6 39.4-13 26.2-23.3 49.3-27.3 61.4-3.6 10.7-5 24.8-2.9 29.8 5.4 13 21.3 7.2 37.1-13.5 7.4-9.7 12.8-18.8 23.4-39.5 9.1-17.7 10.3-19.5 12.9-20 2.6-.5 4.1-2.8 17.9-29.8 11.4-22.3 15.7-29.8 18.1-31.5 2.9-2.1 4.3-2.2 22-2.5l18.8-.3-5.3 4.3c-8.9 7.2-15.1 16.7-28.3 42.8-11.2 22.3-26.6 55-29.4 62.5-4.1 10.9-5.2 23.1-2.6 29.5 1.9 4.7 3.8 6 9.1 6 12.3 0 32.2-22.4 54.3-61 3.9-6.9 14.5-27.1 23.5-45s17.4-33.5 18.7-34.7c3.9-3.7 7.3-4.3 23.4-4.3h15.5l-6.6 6.2c-9 8.4-10.8 11.2-24.2 38.1-24.5 49.2-32.3 69.8-32.3 85.3 0 16.5 13 19.2 27.9 5.8 10.1-9.1 21.1-25.9 34.8-52.9 4.1-8.3 8.5-16.1 9.8-17.5 1.2-1.4 6.1-10 10.9-19.3 16-30.9 21.8-38.5 31.5-41.3 4.6-1.4 6.4-1.4 13.5-.3 4.4.7 9.4 1.2 10.9 1.1 2.8-.1 2.6.2-3.6 6.8-7.3 7.6-18 23.5-28.1 41.2-3.6 6.4-6.6 11.8-6.6 12 0 .2 3.5.3 7.8.4 6.7 0 8.8.5 16.2 3.8 9.1 4.1 19 5.7 22.7 3.8 1.1-.6 7.1-10.8 13.8-23.4 19.4-36.8 24.6-43.6 35.1-45.9 4-.9 6.7-.9 11 0 3.2.6 7.9 1.1 10.4 1.1h4.8l-6.2 6.3c-11 11.2-28.8 40.1-45.1 73.2-4.6 9.3-9.5 20.4-10.8 24.5-6.1 18.8-5.8 32.8 1 35.9 13 5.9 31-11.4 52.1-50.1 4.3-8 6.8-13.6 6.6-15-.3-1.5 6.2-15.1 18.4-38.8 23-44.7 18.9-41 44.5-41h17.8l-5.2 4.2c-2.9 2.4-7.6 7.4-10.6 11.3-8.6 11.3-43.1 81.4-48.2 97.8-4.1 13.3-3.7 25.1 1 29.8 4.8 4.8 15.6.9 25.8-9.2 16.7-16.7 32.3-42.1 60.2-97.9 8.1-16.2 15.8-30.5 17.1-31.7 3.9-3.7 7.3-4.3 23.2-4.3h15.3l-8.2 8.3c-8 8.1-8.6 9.1-20.3 32.3-19.4 38.5-29.9 63.3-32.7 76.5-4.6 21.5 2.5 31.6 17.5 24.8 6-2.7 20-17.1 19.3-19.8-.3-1 0-4.5.7-7.6 1.4-6.9 5.3-11.7 10.9-13.4 3.9-1.1 4.2-1.5 12.5-18 4.7-9.2 9.2-17.3 10-18 .8-.7 2.3-1.1 3.3-.9 3.8.8 2.1 7.4-6.4 24.4-7.3 14.5-8 16.6-7.6 20.5.3 3-.2 6.1-1.6 9.9-1.2 3-2.1 6.8-2.1 8.5.1 7.4 7.6 16.8 14.6 18.1 5.9 1.1 15.6-.1 20.4-2.6 9.2-4.7 25.9-23.6 38.5-43.7l5.5-8.7-4.2-1.4c-19-6.4-23.8-24.6-13.4-50.4 3.8-9.4 8.6-16.7 16.3-24.8 11.6-12.2 23-17.2 38.3-16.7 5.3.2 9.6.9 11.6 1.9z"/><path d="M2403.4 1252c-10.1 3.2-19.4 14.1-23.9 28.1-2.6 8.3-5.5 27.3-5.5 36.3v5.3l34.8-.5c19.1-.2 34.7-.5 34.8-.6 0 0-.3-6.8-.7-15-1.6-29.9-7.5-45.8-19.3-51.8-4.6-2.4-15.3-3.3-20.2-1.8zm-209.1 425.7l-6.3.4v115.2l14.8-.6c34.8-1.3 52.5-12.1 62-37.6 3.3-8.8 4.2-29.1 1.8-39.4-4.5-19-16.5-31.3-35.6-36.2-6.5-1.7-25.3-2.6-36.7-1.8zm-4 137.9l-2.3.5v56.5c0 61.4-.1 60.2 5.6 65.6 3.7 3.4 11.7 7.4 17.4 8.7 6.7 1.6 23.7 1.3 30.3-.4 20-5.2 35-21.2 40.3-43 2.4-9.6 2.4-32.5.1-41.7-4.1-16.8-15.3-31.1-29.7-38.1-12.8-6.3-20.9-7.9-41.5-8.2-9.9-.2-19-.1-20.2.1zM862 2032.5c-19.4 4.3-45.9 24.1-70.8 53-12.8 14.8-35.8 45.8-51.8 69.5-11.1 16.6-36 55.7-39.3 61.9-1 1.7-.3 1.7 7.7-.9 29.8-9.3 64.3-25.6 88.2-41.6 34.3-22.9 65.5-56.7 83.4-90.4 12.6-23.9 14.2-44.3 3.8-50.3-4.3-2.5-13.2-3-21.2-1.2zm1850.5 212.7c-9.6 3.4-26.1 18.7-39.4 36.5-8.2 11-21.8 33.9-20.7 35 1.1 1.2 15.3-2.5 23.8-6.2 19.3-8.3 32.9-20.8 41.5-38.2 3.9-7.8 4.7-10.4 5.1-16.6.4-6.6.2-7.7-1.7-9.6-2.3-2.3-4.1-2.5-8.6-.9zM2192 2434.6c-46.5 12.4-70.1 20.5-83.8 29-13.9 8.7-26.9 23.9-31.4 36.8-4 11.6-1.2 23 6.7 27 5.6 2.9 18.4 2.8 28-.1 22.1-6.9 54.6-33.8 82-67.8 8.9-11.1 21.6-30.6 19.8-30.4-.4 0-10 2.5-21.3 5.5zm-1165.5-187.7c-8.3 2.1-12.8 6.3-21.9 19.9-17.3 26-19.8 43.3-7.6 52.4 3 2.2 10.6 3.5 17 3l4.6-.4 11.3-21.4c6.2-11.8 12.4-24.8 13.7-28.9 3.7-11.6 3-19.7-1.8-22.9-2.8-1.8-11.2-2.8-15.3-1.7zm-167 5.9c-21.1 7.3-46.4 41.1-59.9 80-6.7 19.5-8.5 38.5-4.1 45.9 5.2 8.8 18.6 8.2 32.8-1.5l4.7-3.3-2.4-4.8c-7.7-15.1-4.9-32.5 5.9-36.7 8.7-3.3 17.8 1.7 19.3 10.6l.8 4.5 4.3-7.4c14.7-25 22.8-50.6 21.9-69.1-.8-17-8.8-23.3-23.3-18.2zm1115.7-4.9c-7 2.4-11.7 7.1-20.3 20.3-10.5 16.1-13.1 22.5-13.7 32.9-.5 9.9.7 13.2 6.2 17.4 3.8 2.9 11.5 4.5 18.2 3.7l4.4-.5 7.7-14.6c4.2-8 9.4-18 11.5-22.1 7.9-15.3 10.1-29.2 5.6-34.5-2.2-2.4-7.7-4.5-12.3-4.4-1.1 0-4.4.8-7.3 1.8z"/></svg>