<?xml version="1.0" standalone="no"?>
<!DOCTYPE svg PUBLIC "-//W3C//DTD SVG 20010904//EN"
 "http://www.w3.org/TR/2001/REC-SVG-20010904/DTD/svg10.dtd">
<svg version="1.0" xmlns="http://www.w3.org/2000/svg"
 width="3400.000000pt" height="3400.000000pt" viewBox="0 0 3400.000000 3400.000000"
 preserveAspectRatio="xMidYMid meet">
<metadata>
Created by potrace 1.16, written by Peter Selinger 2001-2019
</metadata>
<g transform="translate(0.000000,3400.000000) scale(0.100000,-0.100000)"
fill="#000000" stroke="none">
<path d="M0 17000 l0 -17000 17000 0 17000 0 0 17000 0 17000 -17000 0 -17000
0 0 -17000z m12701 5830 c138 -26 256 -115 316 -237 34 -69 37 -82 37 -162 0
-122 -27 -186 -113 -272 -36 -36 -85 -76 -109 -88 -240 -123 -547 -8 -634 236
-30 87 -22 199 20 286 86 174 289 274 483 237z m4932 -8 c15 -17 17 -148 19
-1533 l3 -1514 22 -42 c13 -23 36 -51 52 -62 39 -28 144 -67 204 -76 l47 -7 0
-84 0 -84 -695 0 -695 0 0 84 0 84 68 6 c153 16 230 59 251 140 8 32 11 411
11 1318 -1 1197 -2 1276 -19 1325 -44 128 -119 181 -316 222 l-80 16 -3 78
c-2 60 0 79 11 83 8 3 250 18 538 33 288 16 533 29 545 30 11 0 28 -7 37 -17z
m1238 8 c84 -16 173 -63 233 -123 192 -192 152 -482 -85 -624 -220 -132 -524
-44 -635 182 -26 54 -29 70 -29 160 0 93 2 105 33 167 86 175 289 275 483 238z
m-7081 -700 l0 -420 -88 0 -88 0 -39 86 c-89 198 -286 440 -405 497 -78 38
-178 47 -592 54 l-358 6 0 -611 0 -612 199 0 c296 0 392 25 498 128 56 54 127
200 156 322 l22 90 88 0 87 0 0 -660 0 -660 -89 0 -89 0 -6 45 c-18 116 -114
333 -176 395 -22 22 -62 51 -89 65 -90 45 -157 55 -389 55 l-213 0 3 -557 c3
-503 5 -561 20 -589 43 -79 130 -120 318 -150 52 -8 99 -19 103 -23 4 -4 7
-43 5 -87 l-3 -79 -847 -3 -848 -2 0 90 c0 49 4 90 8 90 4 0 64 7 132 15 149
18 210 37 256 77 67 59 64 5 64 1277 0 652 -4 1163 -10 1185 -23 103 -111 154
-335 198 l-115 23 0 87 0 88 1410 0 1410 0 0 -420z m2810 -195 l0 -335 310 0
310 0 0 -120 0 -120 -305 0 -305 0 0 -667 c1 -722 4 -772 53 -870 32 -63 71
-96 139 -119 44 -14 75 -16 212 -10 89 4 178 9 199 12 l37 6 0 -95 0 -95 -67
-27 c-114 -46 -259 -93 -346 -111 -118 -26 -412 -26 -520 -1 -172 41 -302 138
-371 278 -73 151 -70 109 -74 947 l-3 752 -199 0 -200 0 0 120 0 120 205 0
205 0 0 335 0 335 360 0 360 0 0 -335z m9848 -281 c323 -54 574 -230 689 -481
59 -128 98 -350 91 -508 l-3 -70 -744 -3 -744 -2 6 -118 c18 -367 142 -614
362 -722 102 -51 196 -70 344 -70 178 0 286 36 422 138 71 54 186 173 215 221
10 17 22 31 27 31 15 0 167 -113 167 -124 0 -22 -131 -184 -209 -259 -163
-156 -370 -263 -616 -318 -41 -10 -127 -14 -275 -13 -181 0 -231 4 -317 22
-258 56 -458 157 -611 310 -162 162 -258 364 -297 622 -106 696 340 1282 1035
1359 108 12 346 5 458 -15z m-2550 -13 c232 -68 376 -225 444 -484 21 -79 22
-108 27 -747 7 -750 2 -706 85 -755 25 -14 86 -36 138 -49 l93 -23 0 -79 0
-79 -667 -3 -668 -2 0 84 0 83 86 11 c99 13 140 33 169 82 19 34 20 52 23 638
3 652 -1 714 -49 817 -57 122 -152 172 -308 163 -134 -8 -270 -75 -367 -180
-82 -88 -75 -21 -72 -724 l3 -629 24 -49 c20 -41 33 -52 85 -77 34 -16 87 -34
119 -40 l57 -12 0 -83 0 -84 -675 0 -675 0 0 83 0 83 91 13 c146 19 206 55
228 134 9 30 11 239 9 747 l-3 705 -23 42 c-55 104 -128 153 -259 175 l-73 12
0 82 0 83 53 5 c28 3 265 17 526 31 441 23 476 24 493 8 16 -14 18 -34 18
-175 0 -87 3 -158 6 -158 3 0 44 35 92 78 207 185 304 239 502 283 119 26 362
21 468 -10z m-8875 -19 c15 -16 17 -105 19 -927 l3 -910 22 -41 c40 -75 112
-116 251 -145 l62 -13 0 -83 0 -83 -700 0 -700 0 0 84 0 84 68 6 c144 15 210
47 243 120 17 39 19 81 19 741 0 427 -4 713 -10 734 -31 110 -133 179 -314
213 l-66 13 0 82 c0 46 3 83 8 84 22 2 1004 57 1038 58 28 1 46 -5 57 -17z
m6169 1 c17 -15 18 -56 18 -899 0 -605 3 -899 11 -934 21 -97 105 -158 267
-191 l62 -13 0 -83 0 -83 -700 0 -700 0 0 84 0 84 68 7 c141 14 211 48 243
118 18 40 19 76 19 743 0 502 -3 711 -11 735 -16 46 -60 105 -101 135 -36 27
-166 71 -235 81 l-43 6 0 83 c0 46 3 84 8 85 17 2 1001 57 1036 58 24 1 47 -5
58 -16z m7228 -3183 l0 -150 -9315 0 -9315 0 0 150 0 150 9315 0 9315 0 0
-150z m-13920 -948 c125 -26 304 -84 412 -134 l87 -41 70 62 69 61 95 0 95 0
6 -167 c3 -93 9 -351 12 -575 l6 -408 -99 0 -99 0 -53 143 c-166 447 -358 702
-612 809 -96 40 -233 62 -345 54 -193 -13 -314 -66 -445 -196 -125 -124 -207
-273 -265 -488 -105 -386 -109 -968 -7 -1332 64 -231 150 -389 280 -517 70
-70 100 -91 187 -134 147 -71 255 -92 441 -86 168 6 261 27 390 91 194 95 377
276 525 516 19 30 35 57 36 58 5 7 194 -111 194 -121 0 -15 -85 -160 -154
-262 -77 -114 -245 -283 -357 -357 -161 -108 -358 -187 -554 -224 -147 -28
-484 -26 -647 4 -348 64 -621 203 -853 436 -134 134 -199 226 -280 391 -98
202 -147 386 -165 632 -36 474 109 928 404 1265 251 287 611 473 1033 533 141
20 466 13 593 -13z m2930 -142 c0 -85 -1 -90 -22 -94 -13 -2 -78 -11 -145 -20
-198 -26 -268 -63 -293 -156 -7 -26 -10 -412 -8 -1202 3 -960 6 -1169 17
-1200 23 -62 66 -105 128 -128 85 -32 319 -45 543 -31 329 21 392 49 526 231
67 91 161 252 242 416 l76 154 77 0 c43 0 80 -3 82 -7 3 -7 -58 -1002 -62
-1010 0 -2 -649 -3 -1441 -3 l-1440 0 0 95 0 95 36 0 c69 0 249 31 294 51 58
26 79 45 101 94 18 38 19 97 19 1224 0 1159 0 1186 -20 1225 -35 73 -134 120
-325 154 l-100 18 -3 92 -3 92 861 0 860 0 0 -90z m3035 0 l0 -85 -84 -12
c-196 -27 -281 -62 -315 -128 -21 -40 -21 -46 -21 -1005 l0 -965 27 -96 c53
-193 138 -320 274 -409 128 -83 275 -120 484 -120 413 0 673 193 778 575 l27
100 0 800 c0 872 0 872 -58 999 -54 117 -131 166 -351 221 l-131 33 -3 91 -3
91 681 0 680 0 0 -90 c0 -85 -1 -90 -22 -94 -13 -3 -71 -13 -130 -24 -225 -42
-310 -114 -354 -303 -15 -66 -18 -167 -24 -899 -6 -684 -10 -838 -23 -902 -92
-459 -418 -772 -916 -879 -124 -26 -421 -37 -582 -20 -375 39 -645 150 -852
350 -166 160 -265 364 -297 611 -5 43 -10 442 -10 943 0 592 -3 882 -11 911
-25 99 -121 162 -302 199 l-107 22 0 87 0 88 823 -2 822 -3 0 -85z m4285 66
c184 -26 338 -68 449 -122 79 -39 110 -61 177 -128 129 -129 183 -277 171
-471 -18 -295 -213 -494 -617 -628 -74 -25 -152 -48 -172 -52 -28 -5 -38 -12
-38 -26 0 -14 7 -19 26 -19 51 0 231 -42 349 -81 430 -143 647 -419 622 -792
-23 -347 -200 -558 -571 -682 -305 -103 -527 -117 -1691 -113 l-820 3 0 89 0
90 143 18 c203 25 267 59 300 157 17 49 17 2347 0 2403 -24 80 -113 130 -300
168 -57 12 -113 23 -125 26 -22 4 -23 9 -23 88 0 45 3 86 7 90 4 4 453 6 998
4 886 -4 1003 -6 1115 -22z m-13888 -3586 c69 -20 130 -70 163 -134 28 -55 30
-67 29 -160 -1 -85 -6 -116 -34 -201 -61 -186 -181 -397 -338 -595 -92 -116
-287 -311 -402 -404 -305 -244 -702 -446 -1211 -617 -85 -29 -159 -57 -166
-63 -22 -20 -192 -349 -259 -501 -185 -418 -246 -758 -166 -914 42 -81 152
-104 252 -54 101 50 279 240 392 418 183 288 269 505 272 685 2 181 -63 250
-236 250 -55 0 -72 4 -88 20 -40 40 9 80 99 80 112 0 231 -52 310 -135 88 -93
122 -190 122 -351 2 -385 -300 -878 -633 -1034 -174 -81 -415 -109 -550 -62
-117 40 -192 129 -218 257 -17 84 -6 168 41 309 22 67 43 128 45 136 3 8 -26
-44 -64 -117 -107 -201 -193 -324 -312 -445 -85 -86 -119 -113 -175 -140 -61
-29 -80 -33 -150 -32 -161 0 -249 70 -281 225 -34 165 31 366 222 686 87 145
104 181 104 221 0 108 -151 42 -361 -156 -239 -224 -547 -675 -624 -911 -17
-52 -18 -53 -49 -47 -19 3 -45 22 -68 47 -50 55 -65 121 -49 215 21 123 51
205 163 449 127 275 168 381 168 430 0 29 -4 35 -20 35 -53 0 -171 -90 -341
-259 -202 -203 -383 -461 -559 -799 -28 -54 -52 -88 -70 -97 -15 -8 -74 -17
-131 -21 -57 -4 -114 -11 -126 -15 -13 -5 -23 -7 -23 -5 0 1 44 95 99 207 54
112 140 294 191 404 106 230 276 568 351 700 108 189 165 239 273 239 34 0 96
-4 138 -8 l78 -9 -64 -68 c-101 -106 -240 -327 -400 -634 -43 -82 -51 -102
-30 -80 14 17 68 77 118 133 92 105 357 349 520 480 103 82 226 150 288 158
81 10 153 -51 153 -130 0 -47 -75 -209 -195 -421 -37 -66 -82 -149 -99 -185
l-32 -65 38 45 c260 308 494 499 793 650 163 82 335 132 354 102 3 -6 -33 -82
-80 -169 -182 -333 -359 -710 -426 -908 -35 -103 -48 -227 -28 -274 23 -57 93
-63 176 -16 56 33 166 152 229 249 89 136 228 392 431 791 l193 380 -69 2
c-108 2 -169 25 -236 86 -31 28 -65 70 -75 92 -23 49 -24 113 -3 143 30 44
104 17 104 -37 0 -41 41 -114 76 -133 38 -22 174 -42 229 -34 40 6 41 8 109
134 381 699 653 1085 1060 1500 293 299 514 439 769 488 78 15 228 12 289 -6z
m-3602 -1775 c41 -8 138 -33 215 -55 179 -50 260 -64 349 -58 85 6 152 37 211
97 35 37 44 41 86 41 26 0 51 -5 54 -10 10 -17 -98 -143 -167 -195 -185 -140
-342 -157 -643 -70 -244 71 -321 87 -420 89 -106 1 -157 -18 -233 -90 -37 -35
-53 -44 -82 -44 -48 0 -80 10 -80 24 0 13 127 139 185 183 59 45 140 83 209
99 73 16 207 12 316 -11z m21966 -410 c49 -20 102 -70 120 -112 33 -78 9 -209
-61 -323 -44 -72 -158 -196 -237 -256 -114 -88 -329 -176 -500 -205 -63 -10
-78 -16 -83 -33 -63 -221 -66 -382 -8 -489 45 -81 66 -92 187 -92 99 0 105 1
182 39 138 68 322 275 423 473 17 34 31 71 31 82 0 25 180 387 259 521 89 149
134 204 210 253 87 58 119 69 187 68 105 -1 178 -58 216 -170 14 -42 17 -194
5 -296 l-8 -70 60 101 c129 219 337 460 432 504 50 22 122 26 158 7 87 -44 85
-158 -3 -235 -69 -60 -155 -64 -212 -11 l-30 30 -55 -58 c-151 -160 -318 -434
-405 -663 -26 -70 -28 -85 -28 -230 -1 -155 -1 -156 31 -220 39 -80 69 -100
150 -100 80 0 144 33 232 120 111 111 264 359 375 611 105 237 294 483 459
597 319 219 663 241 855 54 43 -42 52 -57 52 -85 0 -38 -23 -65 -60 -69 -20
-2 -28 5 -43 37 -42 89 -91 119 -197 119 -86 0 -143 -21 -252 -95 -82 -56
-231 -201 -323 -314 -362 -446 -510 -960 -277 -960 161 0 357 213 612 665 173
306 202 352 248 400 56 58 104 69 212 51 38 -6 85 -11 104 -11 l34 0 -75 -112
c-95 -143 -258 -470 -306 -614 -48 -145 -67 -288 -47 -347 14 -38 18 -42 53
-45 117 -10 296 211 526 649 75 144 89 163 118 157 38 -7 26 -52 -61 -224
-183 -362 -367 -603 -517 -679 -99 -51 -209 -40 -286 28 -84 74 -115 237 -78
412 8 38 15 72 15 74 0 3 -33 -43 -72 -101 -198 -288 -381 -441 -531 -442
-158 -2 -258 126 -274 350 l-6 81 -50 -76 c-72 -109 -225 -258 -307 -298 -293
-143 -533 11 -559 357 l-6 95 -27 -50 c-14 -27 -57 -97 -95 -155 -202 -305
-362 -437 -542 -448 -63 -4 -86 -1 -124 16 -58 26 -84 63 -68 98 18 40 49 45
99 17 55 -33 131 -29 217 10 170 79 442 485 579 865 50 141 83 417 57 485 -45
118 -170 51 -293 -158 -74 -126 -140 -255 -143 -284 -5 -35 -155 -358 -213
-457 -166 -285 -370 -438 -613 -460 -186 -16 -377 75 -448 214 -29 56 -51 154
-51 226 l0 59 -69 -104 c-223 -335 -411 -448 -623 -373 -123 43 -191 205 -159
376 29 155 79 271 213 495 117 197 137 250 106 281 -74 74 -394 -190 -651
-536 -84 -113 -180 -271 -278 -455 -51 -97 -81 -143 -99 -152 -14 -7 -78 -18
-141 -23 -63 -5 -122 -12 -132 -17 -14 -6 -8 13 26 82 l46 90 -79 -52 c-92
-60 -173 -89 -295 -106 -214 -28 -413 35 -498 158 -61 89 -71 128 -72 268 0
72 4 150 8 175 7 40 0 31 -65 -85 -96 -170 -162 -264 -245 -349 -136 -138
-296 -237 -547 -336 l-121 -48 -83 -139 c-210 -348 -339 -520 -523 -698 -197
-191 -398 -308 -601 -350 -302 -64 -554 10 -617 181 -40 105 -23 225 52 368
75 145 217 265 441 372 155 74 298 119 696 219 190 48 355 91 367 96 47 18
192 356 322 748 39 118 70 216 68 217 -2 2 -39 -59 -83 -136 -116 -205 -193
-310 -329 -446 -93 -93 -135 -128 -185 -152 -158 -78 -331 -54 -421 58 -38 47
-63 148 -56 220 9 87 44 186 104 300 31 57 51 106 46 107 -32 11 -45 30 -37
54 23 63 360 707 382 732 39 41 80 48 262 45 l165 -3 -50 -35 c-27 -19 -60
-45 -73 -59 -76 -83 -455 -838 -515 -1026 -14 -44 -26 -103 -27 -130 -4 -112
-1 -133 27 -165 25 -30 30 -32 78 -28 70 6 147 59 237 162 181 208 393 550
631 1016 55 107 109 206 121 219 39 43 74 51 240 51 l154 0 -65 -62 c-142
-137 -179 -223 -514 -1193 -66 -192 -123 -358 -126 -368 -13 -43 269 87 398
185 159 120 266 261 424 558 100 188 128 230 155 230 13 0 33 28 70 96 101
191 208 329 330 427 284 229 666 219 736 -19 31 -107 0 -219 -87 -318 -68 -77
-158 -108 -200 -70 -17 15 -15 19 27 74 89 117 129 239 105 320 -40 133 -233
72 -432 -138 -254 -267 -425 -684 -389 -946 13 -88 62 -190 110 -228 73 -57
233 -57 355 1 126 59 259 189 370 361 24 36 82 148 130 250 93 199 277 552
332 638 84 132 161 181 267 168 28 -3 80 -9 116 -12 l66 -6 -61 -62 c-97 -98
-239 -321 -391 -614 l-66 -127 58 65 c132 149 333 339 442 418 219 158 485
292 608 308 87 10 90 2 32 -101 -102 -181 -375 -733 -421 -850 -57 -147 -76
-217 -84 -317 -6 -76 -6 -77 26 -109 29 -28 36 -31 72 -25 56 9 93 30 152 85
125 117 253 313 418 642 61 123 137 262 168 309 66 99 217 260 310 330 185
139 384 191 517 135z m-18458 -35 c128 -56 205 -234 187 -430 -28 -288 -180
-601 -409 -838 l-70 -72 21 -28 c58 -79 207 -103 310 -50 28 15 81 57 117 94
62 63 66 69 66 113 0 104 48 183 124 202 l42 10 87 175 c48 96 95 178 104 181
21 8 47 -9 51 -35 3 -21 -84 -230 -139 -331 -18 -34 -29 -70 -29 -93 0 -22
-10 -62 -21 -89 -40 -91 -13 -178 75 -243 23 -18 42 -21 119 -21 82 0 97 3
139 27 105 62 224 195 360 402 l78 119 -49 17 c-66 22 -115 61 -148 117 -88
151 6 464 197 653 187 184 490 203 576 37 l15 -28 39 35 c47 43 93 53 175 37
34 -6 84 -11 110 -11 l48 0 -45 -42 c-101 -96 -262 -347 -429 -673 -152 -296
-194 -422 -187 -566 3 -74 6 -83 31 -105 36 -31 95 -32 153 -3 58 28 180 160
260 280 36 55 112 188 169 297 57 108 109 203 115 210 7 7 22 12 33 10 43 -6
33 -53 -47 -213 -141 -285 -255 -454 -396 -588 -147 -141 -289 -181 -405 -112
-86 50 -128 122 -145 248 -15 106 0 190 55 305 38 78 42 92 26 92 -12 0 -43
-43 -101 -142 -112 -193 -159 -258 -260 -358 -98 -97 -169 -142 -255 -165 -73
-19 -121 -19 -206 -1 -119 26 -199 80 -251 173 l-30 53 -61 -55 c-92 -82 -173
-119 -271 -124 -109 -5 -174 12 -249 63 l-63 43 -85 -52 c-116 -70 -182 -90
-294 -90 -117 0 -167 19 -232 88 -71 75 -95 143 -101 284 -5 123 10 221 54
353 130 393 490 783 793 860 63 16 190 6 249 -20z m11208 8 c39 -21 93 -77
100 -103 5 -19 8 -18 44 16 47 45 98 56 185 40 32 -6 79 -11 103 -11 l44 0
-63 -68 c-115 -122 -258 -350 -429 -687 -118 -233 -161 -355 -168 -481 -7
-130 19 -174 104 -174 133 0 314 212 515 605 51 99 99 188 107 198 33 38 77 8
62 -43 -4 -14 -46 -103 -93 -196 -257 -507 -522 -751 -738 -679 -123 41 -189
159 -189 336 0 98 18 166 71 270 26 52 27 59 11 59 -12 0 -41 -41 -94 -133
-106 -184 -188 -296 -279 -380 -91 -86 -163 -131 -244 -152 -73 -19 -121 -19
-208 0 -121 25 -202 85 -257 188 l-22 42 -74 -71 c-86 -83 -167 -130 -248
-142 -103 -16 -180 9 -240 80 -75 87 -94 250 -50 428 4 14 -10 -1 -32 -35
-150 -238 -324 -413 -456 -461 -63 -23 -176 -20 -236 6 -59 25 -115 80 -138
135 -9 22 -20 75 -23 118 l-6 78 -65 -87 c-71 -95 -181 -202 -245 -239 -56
-33 -159 -58 -208 -51 -84 14 -169 82 -206 166 -11 25 -27 82 -36 128 -22 109
-12 168 55 314 27 61 50 112 50 114 0 1 -14 -1 -30 -6 -46 -13 -130 4 -222 46
-54 24 -101 38 -142 41 -104 9 -103 10 -323 -492 -70 -161 -114 -249 -133
-266 -25 -24 -38 -28 -127 -33 -54 -3 -115 -10 -135 -15 -21 -4 -38 -7 -38 -4
0 2 23 49 51 104 l50 101 -68 -57 c-109 -93 -220 -132 -318 -114 -128 24 -195
116 -211 290 -6 58 5 165 23 224 3 11 -31 -35 -76 -103 -132 -197 -288 -348
-411 -396 -64 -26 -174 -23 -240 5 -69 29 -125 93 -146 165 -34 119 -3 263 98
452 36 67 46 92 35 92 -10 0 -43 -53 -87 -137 -103 -200 -188 -323 -299 -434
-104 -104 -169 -144 -260 -158 -149 -24 -261 54 -297 208 -46 195 14 400 304
1032 120 263 116 243 52 236 -29 -4 -65 -15 -81 -25 -74 -47 -172 -221 -297
-527 -208 -509 -400 -806 -575 -888 -148 -71 -361 -43 -464 60 -58 58 -116
178 -121 253 -8 104 63 201 148 204 84 2 113 -74 70 -186 -25 -67 -25 -99 0
-148 39 -77 108 -105 218 -90 95 13 143 39 224 120 127 127 264 369 438 775
133 311 166 372 235 442 89 89 107 93 424 93 l256 0 -67 -64 c-85 -81 -116
-130 -246 -394 -130 -262 -233 -493 -273 -614 -36 -107 -50 -248 -29 -298 54
-130 213 -72 371 135 74 97 128 188 234 395 91 177 103 195 129 200 26 5 41
28 179 298 114 223 157 298 181 315 29 21 43 22 220 25 l188 3 -53 -43 c-89
-72 -151 -167 -283 -428 -112 -223 -266 -550 -294 -625 -41 -109 -52 -231 -26
-295 19 -47 38 -60 91 -60 123 0 322 224 543 610 39 69 145 271 235 450 90
179 174 335 187 347 39 37 73 43 234 43 l155 0 -66 -62 c-90 -84 -108 -112
-242 -381 -245 -492 -323 -698 -323 -853 0 -165 130 -192 279 -58 101 91 211
259 348 529 41 83 85 161 98 175 12 14 61 100 109 193 160 309 218 385 315
413 46 14 64 14 135 3 44 -7 94 -12 109 -11 28 1 26 -2 -36 -68 -73 -76 -180
-235 -281 -412 -36 -64 -66 -118 -66 -120 0 -2 35 -3 78 -4 67 0 88 -5 162
-38 91 -41 190 -57 227 -38 11 6 71 108 138 234 194 368 246 436 351 459 40 9
67 9 110 0 32 -6 79 -11 104 -11 l48 0 -62 -63 c-110 -112 -288 -401 -451
-732 -46 -93 -95 -204 -108 -245 -61 -188 -58 -328 10 -359 130 -59 310 114
521 501 43 80 68 136 66 150 -3 15 62 151 184 388 230 447 189 410 445 410
l178 0 -52 -42 c-29 -24 -76 -74 -106 -113 -86 -113 -431 -814 -482 -978 -41
-133 -37 -251 10 -298 48 -48 156 -9 258 92 167 167 323 421 602 979 81 162
158 305 171 317 39 37 73 43 232 43 l153 0 -82 -83 c-80 -81 -86 -91 -203
-323 -194 -385 -299 -633 -327 -765 -46 -215 25 -316 175 -248 60 27 200 171
193 198 -3 10 0 45 7 76 14 69 53 117 109 134 39 11 42 15 125 180 47 92 92
173 100 180 8 7 23 11 33 9 38 -8 21 -74 -64 -244 -73 -145 -80 -166 -76 -205
3 -30 -2 -61 -16 -99 -12 -30 -21 -68 -21 -85 1 -74 76 -168 146 -181 59 -11
156 1 204 26 92 47 259 236 385 437 l55 87 -42 14 c-190 64 -238 246 -134 504
38 94 86 167 163 248 116 122 230 172 383 167 53 -2 96 -9 116 -19z"/>
<path d="M24034 21480 c-101 -32 -194 -141 -239 -281 -26 -83 -55 -273 -55
-363 l0 -53 348 5 c191 2 347 5 348 6 0 0 -3 68 -7 150 -16 299 -75 458 -193
518 -46 24 -153 33 -202 18z"/>
<path d="M21943 17223 l-63 -4 0 -576 0 -576 148 6 c348 13 525 121 620 376
33 88 42 291 18 394 -45 190 -165 313 -356 362 -65 17 -253 26 -367 18z"/>
<path d="M21903 15844 l-23 -5 0 -565 c0 -614 -1 -602 56 -656 37 -34 117 -74
174 -87 67 -16 237 -13 303 4 200 52 350 212 403 430 24 96 24 325 1 417 -41
168 -153 311 -297 381 -128 63 -209 79 -415 82 -99 2 -190 1 -202 -1z"/>
<path d="M8620 13675 c-194 -43 -459 -241 -708 -530 -128 -148 -358 -458 -518
-695 -111 -166 -360 -557 -393 -619 -10 -17 -3 -17 77 9 298 93 643 256 882
416 343 229 655 567 834 904 126 239 142 443 38 503 -43 25 -132 30 -212 12z"/>
<path d="M27125 11548 c-96 -34 -261 -187 -394 -365 -82 -110 -218 -339 -207
-350 11 -12 153 25 238 62 193 83 329 208 415 382 39 78 47 104 51 166 4 66 2
77 -17 96 -23 23 -41 25 -86 9z"/>
<path d="M21920 9654 c-465 -124 -701 -205 -838 -290 -139 -87 -269 -239 -314
-368 -40 -116 -12 -230 67 -270 56 -29 184 -28 280 1 221 69 546 338 820 678
89 111 216 306 198 304 -4 0 -100 -25 -213 -55z"/>
<path d="M10265 11531 c-83 -21 -128 -63 -219 -199 -173 -260 -198 -433 -76
-524 30 -22 106 -35 170 -30 l46 4 113 214 c62 118 124 248 137 289 37 116 30
197 -18 229 -28 18 -112 28 -153 17z"/>
<path d="M8595 11472 c-211 -73 -464 -411 -599 -800 -67 -195 -85 -385 -41
-459 52 -88 186 -82 328 15 l47 33 -24 48 c-77 151 -49 325 59 367 87 33 178
-17 193 -106 l8 -45 43 74 c147 250 228 506 219 691 -8 170 -88 233 -233 182z"/>
<path d="M19752 11521 c-70 -24 -117 -71 -203 -203 -105 -161 -131 -225 -137
-329 -5 -99 7 -132 62 -174 38 -29 115 -45 182 -37 l44 5 77 146 c42 80 94
180 115 221 79 153 101 292 56 345 -22 24 -77 45 -123 44 -11 0 -44 -8 -73
-18z"/>
</g>
</svg>
